<?xml version="1.0" standalone="no"?>
<!DOCTYPE svg PUBLIC "-//W3C//DTD SVG 20010904//EN"
 "http://www.w3.org/TR/2001/REC-SVG-20010904/DTD/svg10.dtd">
<svg version="1.0" xmlns="http://www.w3.org/2000/svg"
 width="128.000000pt" height="128.000000pt" viewBox="0 0 128.000000 128.000000"
 preserveAspectRatio="xMidYMid meet">

<g transform="translate(0.000000,128.000000) scale(0.100000,-0.100000)"
fill="#000000" stroke="none">
<path d="M25 1255 c-53 -52 -56 -48 350 -455 l375 -375 52 53 53 52 -375 375
c-407 406 -403 403 -455 350z"/>
<path d="M935 1040 l-240 -240 53 -52 52 -53 240 240 c261 261 266 270 215
320 -50 51 -59 46 -320 -215z"/>
<path d="M450 555 l-24 -26 52 -52 52 -52 27 28 27 27 -49 50 c-27 27 -52 50
-55 50 -4 0 -17 -11 -30 -25z"/>
<path d="M290 505 l-24 -26 27 -27 27 -27 -160 -160 -160 -160 53 -53 53 -52
54 55 54 55 28 -27 28 -27 25 24 25 24 -27 28 -27 28 27 27 27 27 28 -27 28
-27 22 23 c27 29 27 35 0 64 l-21 23 23 25 24 25 28 -27 28 -27 28 27 27 27
-105 105 c-58 58 -107 105 -111 105 -3 0 -16 -11 -29 -25z"/>
<path d="M850 425 l-105 -105 28 -27 27 -28 27 28 28 27 160 -160 160 -160 53
53 52 53 -55 54 -55 54 27 28 27 28 -24 25 -24 25 -28 -27 -28 -27 -27 27 -27
27 27 28 27 28 -23 22 c-29 27 -35 27 -64 0 l-23 -21 -25 23 -25 24 27 28 27
28 -24 25 c-13 14 -26 25 -29 25 -4 0 -53 -47 -111 -105z"/>
</g>
</svg>
